<?xml version="1.0" encoding="utf-8"?>
<!-- Generator: Adobe Illustrator 15.0.0, SVG Export Plug-In . SVG Version: 6.00 Build 0)  -->
<!DOCTYPE svg PUBLIC "-//W3C//DTD SVG 1.1//EN" "http://www.w3.org/Graphics/SVG/1.1/DTD/svg11.dtd">
<svg version="1.1" id="Layer_1" xmlns="http://www.w3.org/2000/svg" xmlns:xlink="http://www.w3.org/1999/xlink" x="0px" y="0px"
	 width="620px" height="620px" viewBox="0 0 620 620" enable-background="new 0 0 620 620" xml:space="preserve">
<g id="Background">
	<path fill="#C7552C" d="M576.024,337.51c0.75,0.243,1.5,0.478,2.232,0.711c4.05,3.637,9.529,4.483,10.135,4.679
		c6.846,6.823,5.634,8.645,7.824,17.747c1.143,7.705,1.305,14.473,4.468,24.701c4.466,38.629,8.14,40.222,0.06,49.411
		c-1.953,0.921-19.051,8.967-23.943,12.401c-1.799,0.554-70.268,34.47-135.491,58.668
		c-107.744,39.975-109.483,34.418-118.698,38.262c-10.696,0.171-10.628,0.188-11.558,0.188c-4.312,0.009-4.219-0.188-8.472-0.179
		c-4.777-1.91-4.735-1.705-9.862-2.643c-0.818-0.145-1.645-0.29-2.467-0.426c-3.508-2.071-146.805-44.844-254.888-98.618
		c-12.01-5.983-12.171-5.531-13.851-6.196c-11.46-7.807-7.216-11.046,0.695-67.042c1.381-4.223,1.291-4.1,1.602-8.489
		c3.316-16.924,6.947-16.753,9.943-18.653c43.577-17.413,44.173-18.15,52.462-15.168c6.866,2.48,182.608,75.377,216.391,76.775
		c16.263,0.665,39.933,1.637,193.952-61.586c39.755-16.322,40.556-19.677,57.1-13.097C574.2,337.135,574.123,337.296,576.024,337.51
		L576.024,337.51z"/>
	<path fill="#C7552C" d="M510.87,235.436c3.29,9.853,12.231,61.928,7.082,67.357c-9.801,10.344-176.112,75.445-211.502,73.75
		c-31.072-1.501-197.736-63.649-204.624-74.483c-2.447-3.844-4.151-6.538,4.667-56.776c2.548-14.528,5.685-14.191,45.157-28.63
		c21.377-7.82,22.017-0.025,106.945,28.068c59.772,19.77,62.056,13.949,141.06-13.233c48.645-16.732,49.394-21.701,71.428-13.642
		C505.364,230.39,506.208,229.917,510.87,235.436L510.87,235.436z"/>
	<path fill="#C7552C" d="M305.667,87.242l8.472,0.008c0.956,0.393,97.322,32.56,104.465,38.143
		c6.817,5.332,11.522,55.173,11.174,59.784c-0.408,5.532-0.972,7.838-62.409,28.784c-46.939,16.002-48.346,21.709-95.541,6.521
		c-79.132-25.473-79.844-27.719-81.356-34.627c-1.385-6.312,5.979-48.272,6.887-52.215c3.818-16.553,33.382-17.422,95.165-42.562
		C300.156,89.223,300.216,89.82,305.667,87.242L305.667,87.242z"/>
</g>
</svg>
