<?xml version="1.0" encoding="utf-8"?>
<!-- Generator: Adobe Illustrator 15.0.0, SVG Export Plug-In . SVG Version: 6.00 Build 0)  -->
<!DOCTYPE svg PUBLIC "-//W3C//DTD SVG 1.1//EN" "http://www.w3.org/Graphics/SVG/1.1/DTD/svg11.dtd">
<svg version="1.1" id="Layer_1" xmlns="http://www.w3.org/2000/svg" xmlns:xlink="http://www.w3.org/1999/xlink" x="0px" y="0px"
	 width="67.828px" height="52.393px" viewBox="0 0 67.828 52.393" enable-background="new 0 0 67.828 52.393" xml:space="preserve">
<g id="Background">
	<path fill="#FFFFFF" d="M64.449,28.703c0.086,0.027,0.172,0.055,0.256,0.082c0.463,0.417,1.092,0.514,1.16,0.535
		c0.784,0.782,0.646,0.99,0.896,2.033c0.131,0.883,0.148,1.658,0.512,2.83c0.512,4.426,0.934,4.608,0.007,5.661
		c-0.224,0.105-2.183,1.027-2.743,1.421c-0.205,0.063-8.051,3.949-15.522,6.722c-12.345,4.58-12.544,3.943-13.601,4.385
		c-1.226,0.02-1.218,0.021-1.324,0.021c-0.494,0.001-0.483-0.021-0.971-0.021c-0.547-0.22-0.542-0.195-1.13-0.304
		c-0.094-0.017-0.188-0.032-0.283-0.049c-0.402-0.236-16.82-5.138-29.203-11.299c-1.376-0.686-1.395-0.634-1.587-0.71
		c-1.313-0.895-0.827-1.266,0.08-7.681c0.158-0.484,0.148-0.471,0.184-0.974c0.38-1.938,0.796-1.919,1.139-2.137
		c4.993-1.995,5.061-2.08,6.011-1.738c0.787,0.284,20.922,8.637,24.792,8.796c1.863,0.076,4.575,0.188,22.221-7.056
		c4.556-1.87,4.646-2.254,6.543-1.5C64.239,28.66,64.23,28.678,64.449,28.703L64.449,28.703z"/>
	<path fill="#FFFFFF" d="M56.983,17.008c0.377,1.129,1.401,7.095,0.812,7.717c-1.123,1.186-20.178,8.645-24.231,8.45
		c-3.56-0.172-22.655-7.292-23.444-8.534c-0.28-0.439-0.476-0.749,0.535-6.505c0.292-1.665,0.651-1.626,5.174-3.28
		c2.449-0.896,2.522-0.003,12.253,3.216c6.848,2.266,7.11,1.599,16.163-1.516c5.572-1.917,5.658-2.486,8.184-1.563
		C56.353,16.43,56.449,16.375,56.983,17.008L56.983,17.008z"/>
	<path fill="#FFFFFF" d="M33.473,0.029l0.971,0.001c0.109,0.046,11.149,3.73,11.97,4.37c0.78,0.611,1.319,6.321,1.279,6.851
		c-0.047,0.634-0.111,0.897-7.15,3.298c-5.377,1.833-5.539,2.487-10.945,0.747c-9.066-2.918-9.148-3.176-9.321-3.967
		c-0.159-0.724,0.685-5.531,0.789-5.982C21.503,3.45,24.89,3.35,31.968,0.47C32.841,0.256,32.848,0.324,33.473,0.029L33.473,0.029z"
		/>
</g>
</svg>
