<?xml version="1.0" encoding="utf-8"?>
<!-- Generator: Adobe Illustrator 15.0.0, SVG Export Plug-In . SVG Version: 6.00 Build 0)  -->
<!DOCTYPE svg PUBLIC "-//W3C//DTD SVG 1.1//EN" "http://www.w3.org/Graphics/SVG/1.1/DTD/svg11.dtd">
<svg version="1.1" id="Layer_1" xmlns="http://www.w3.org/2000/svg" xmlns:xlink="http://www.w3.org/1999/xlink" x="0px" y="0px"
	 width="600px" height="32px" viewBox="0 0 600 32" enable-background="new 0 0 600 32" xml:space="preserve">
<title>Directus App v8 Sprite Final</title>
<desc>Created with Sketch.</desc>
<path fill="#FFFFFF" d="M36.565,15.851c0.047,0.016,0.095,0.029,0.141,0.045c0.257,0.23,0.604,0.283,0.643,0.297
	c0.433,0.432,0.356,0.547,0.496,1.124c0.072,0.488,0.082,0.918,0.283,1.564c0.283,2.447,0.515,2.547,0.003,3.129
	c-0.123,0.059-1.206,0.568-1.516,0.787c-0.114,0.033-4.45,2.182-8.581,3.715c-6.825,2.531-6.935,2.18-7.518,2.424
	c-0.678,0.01-0.674,0.013-0.732,0.013c-0.273,0-0.268-0.013-0.536-0.013c-0.303-0.121-0.3-0.106-0.625-0.168
	c-0.052-0.008-0.104-0.018-0.155-0.026c-0.223-0.13-9.299-2.839-16.144-6.246c-0.761-0.379-0.771-0.351-0.877-0.392
	c-0.726-0.494-0.457-0.699,0.044-4.246c0.087-0.268,0.082-0.26,0.102-0.539c0.21-1.07,0.44-1.061,0.629-1.181
	c2.76-1.102,2.798-1.148,3.323-0.959c0.435,0.156,11.566,4.774,13.705,4.862c1.03,0.043,2.53,0.104,12.285-3.901
	c2.518-1.033,2.568-1.246,3.616-0.83C36.45,15.828,36.445,15.837,36.565,15.851L36.565,15.851z"/>
<path fill="#FFFFFF" d="M32.439,9.386c0.208,0.624,0.775,3.922,0.449,4.266c-0.621,0.655-11.154,4.78-13.396,4.67
	c-1.968-0.094-12.524-4.031-12.96-4.717c-0.155-0.243-0.263-0.414,0.295-3.596c0.162-0.92,0.361-0.899,2.86-1.813
	c1.354-0.495,1.395-0.001,6.774,1.778c3.785,1.252,3.93,0.883,8.933-0.838c3.082-1.06,3.129-1.375,4.524-0.864
	C32.09,9.066,32.144,9.037,32.439,9.386L32.439,9.386z"/>
<path fill="#FFFFFF" d="M19.443,0h0.537c0.061,0.025,6.164,2.063,6.616,2.416c0.432,0.337,0.73,3.494,0.707,3.786
	c-0.026,0.351-0.062,0.497-3.953,1.823c-2.972,1.014-3.062,1.375-6.051,0.413c-5.012-1.613-5.057-1.756-5.153-2.193
	c-0.087-0.399,0.379-3.057,0.437-3.307c0.242-1.048,2.115-1.104,6.028-2.695C19.094,0.125,19.097,0.163,19.443,0L19.443,0z"/>
<path fill="#FFFFFF" d="M76.565,15.851c0.047,0.016,0.095,0.029,0.141,0.045c0.257,0.23,0.604,0.283,0.643,0.297
	c0.433,0.432,0.356,0.547,0.496,1.124c0.072,0.488,0.082,0.918,0.283,1.564c0.283,2.447,0.515,2.547,0.003,3.129
	c-0.123,0.059-1.206,0.568-1.516,0.787c-0.114,0.033-4.45,2.182-8.581,3.715c-6.825,2.531-6.935,2.18-7.518,2.424
	c-0.678,0.01-0.674,0.013-0.732,0.013c-0.273,0-0.268-0.013-0.536-0.013c-0.303-0.121-0.3-0.106-0.625-0.168
	c-0.052-0.008-0.104-0.018-0.155-0.026c-0.223-0.13-9.299-2.839-16.144-6.246c-0.761-0.379-0.771-0.351-0.877-0.392
	c-0.726-0.494-0.457-0.699,0.044-4.246c0.087-0.268,0.082-0.26,0.102-0.539c0.21-1.07,0.44-1.061,0.629-1.181
	c2.76-1.102,2.798-1.148,3.323-0.959c0.435,0.156,11.566,4.774,13.705,4.862c1.03,0.043,2.53,0.104,12.285-3.901
	c2.518-1.033,2.568-1.246,3.616-0.83C76.45,15.828,76.445,15.837,76.565,15.851L76.565,15.851z"/>
<path fill="#FFFFFF" d="M72.439,9.386c0.208,0.624,0.775,3.922,0.449,4.266c-0.621,0.655-11.154,4.78-13.396,4.67
	c-1.968-0.094-12.524-4.031-12.96-4.717c-0.155-0.243-0.263-0.414,0.295-3.596c0.162-0.92,0.361-0.899,2.86-1.813
	c1.354-0.495,1.395-0.001,6.774,1.778c3.785,1.252,3.93,0.883,8.933-0.838c3.082-1.06,3.129-1.375,4.524-0.864
	C72.09,9.066,72.144,9.037,72.439,9.386L72.439,9.386z"/>
<path fill="#FFFFFF" d="M59.443,0h0.537c0.061,0.025,6.164,2.063,6.616,2.416c0.432,0.337,0.73,3.494,0.707,3.786
	c-0.026,0.351-0.062,0.497-3.953,1.823c-2.972,1.014-3.062,1.375-6.051,0.413c-5.012-1.613-5.057-1.756-5.153-2.193
	c-0.087-0.399,0.379-3.057,0.437-3.307c0.242-1.048,2.115-1.104,6.028-2.695C59.094,0.125,59.097,0.163,59.443,0L59.443,0z"/>
<path fill="#FFFFFF" d="M116.565,15.851c0.047,0.016,0.095,0.029,0.141,0.045c0.257,0.23,0.604,0.283,0.643,0.297
	c0.433,0.432,0.356,0.547,0.496,1.124c0.072,0.488,0.082,0.918,0.283,1.564c0.283,2.447,0.515,2.547,0.003,3.129
	c-0.123,0.059-1.206,0.568-1.516,0.787c-0.114,0.033-4.45,2.182-8.581,3.715c-6.825,2.531-6.935,2.18-7.518,2.424
	c-0.678,0.01-0.674,0.013-0.732,0.013c-0.273,0-0.268-0.013-0.536-0.013c-0.303-0.121-0.3-0.106-0.625-0.168
	c-0.052-0.008-0.104-0.018-0.155-0.026c-0.223-0.13-9.299-2.839-16.144-6.246c-0.761-0.379-0.771-0.351-0.877-0.392
	c-0.726-0.494-0.457-0.699,0.044-4.246c0.087-0.268,0.082-0.26,0.102-0.539c0.21-1.07,0.44-1.061,0.629-1.181
	c2.76-1.102,2.798-1.148,3.323-0.959c0.435,0.156,11.566,4.774,13.705,4.862c1.03,0.043,2.53,0.104,12.285-3.901
	c2.518-1.033,2.568-1.246,3.616-0.83C116.45,15.828,116.445,15.837,116.565,15.851L116.565,15.851z"/>
<path fill="#FFFFFF" d="M112.439,10.386c0.208,0.624,0.775,3.922,0.449,4.266c-0.621,0.655-11.154,4.78-13.396,4.67
	c-1.968-0.094-12.524-4.031-12.96-4.717c-0.155-0.243-0.263-0.414,0.295-3.596c0.162-0.92,0.361-0.899,2.86-1.813
	c1.354-0.495,1.395-0.001,6.774,1.778c3.785,1.252,3.93,0.883,8.933-0.838c3.082-1.06,3.129-1.375,4.524-0.864
	C112.09,10.066,112.144,10.037,112.439,10.386L112.439,10.386z"/>
<path fill="#FFFFFF" d="M99.443,0h0.537c0.061,0.025,6.164,2.063,6.616,2.416c0.432,0.337,0.73,3.494,0.707,3.786
	c-0.026,0.351-0.062,0.497-3.953,1.823c-2.972,1.014-3.062,1.375-6.051,0.413c-5.012-1.613-5.057-1.756-5.153-2.193
	c-0.087-0.399,0.379-3.057,0.437-3.307c0.242-1.048,2.115-1.104,6.028-2.695C99.094,0.125,99.097,0.163,99.443,0L99.443,0z"/>
<path fill="#FFFFFF" d="M156.565,15.851c0.047,0.016,0.095,0.029,0.141,0.045c0.257,0.23,0.604,0.283,0.643,0.297
	c0.433,0.432,0.356,0.547,0.496,1.124c0.072,0.488,0.082,0.918,0.283,1.564c0.283,2.447,0.515,2.547,0.003,3.129
	c-0.123,0.059-1.206,0.568-1.516,0.787c-0.114,0.033-4.45,2.182-8.581,3.715c-6.825,2.531-6.935,2.18-7.518,2.424
	c-0.678,0.01-0.674,0.013-0.732,0.013c-0.273,0-0.268-0.013-0.536-0.013c-0.303-0.121-0.3-0.106-0.625-0.168
	c-0.052-0.008-0.104-0.018-0.155-0.026c-0.223-0.13-9.299-2.839-16.144-6.246c-0.761-0.379-0.771-0.351-0.877-0.392
	c-0.726-0.494-0.457-0.699,0.044-4.246c0.087-0.268,0.082-0.26,0.102-0.539c0.21-1.07,0.44-1.061,0.629-1.181
	c2.76-1.102,2.798-1.148,3.323-0.959c0.435,0.156,11.566,4.774,13.705,4.862c1.03,0.043,2.53,0.104,12.285-3.901
	c2.518-1.033,2.568-1.246,3.616-0.83C156.45,15.828,156.445,15.837,156.565,15.851L156.565,15.851z"/>
<path fill="#FFFFFF" d="M152.439,10.386c0.208,0.624,0.775,3.922,0.449,4.266c-0.621,0.655-11.154,4.78-13.396,4.67
	c-1.968-0.094-12.524-4.031-12.96-4.717c-0.155-0.243-0.263-0.414,0.295-3.596c0.162-0.92,0.361-0.899,2.86-1.813
	c1.354-0.495,1.395-0.001,6.774,1.778c3.785,1.252,3.93,0.883,8.933-0.838c3.082-1.06,3.129-1.375,4.524-0.864
	C152.09,10.066,152.144,10.037,152.439,10.386L152.439,10.386z"/>
<path fill="#FFFFFF" d="M139.443,0h0.537c0.061,0.025,6.164,2.063,6.616,2.416c0.432,0.337,0.73,3.494,0.707,3.786
	c-0.026,0.351-0.062,0.497-3.953,1.823c-2.972,1.014-3.062,1.375-6.051,0.413c-5.012-1.613-5.057-1.756-5.153-2.193
	c-0.087-0.399,0.379-3.057,0.437-3.307c0.242-1.048,2.115-1.104,6.028-2.695C139.094,0.125,139.097,0.163,139.443,0L139.443,0z"/>
<path fill="#FFFFFF" d="M196.565,15.851c0.047,0.016,0.095,0.029,0.141,0.045c0.257,0.23,0.604,0.283,0.643,0.297
	c0.433,0.432,0.356,0.547,0.496,1.124c0.072,0.488,0.082,0.918,0.283,1.564c0.283,2.447,0.515,2.547,0.003,3.129
	c-0.123,0.059-1.206,0.568-1.516,0.787c-0.114,0.033-4.45,2.182-8.581,3.715c-6.825,2.531-6.935,2.18-7.518,2.424
	c-0.678,0.01-0.674,0.013-0.732,0.013c-0.273,0-0.268-0.013-0.536-0.013c-0.303-0.121-0.3-0.106-0.625-0.168
	c-0.052-0.008-0.104-0.018-0.155-0.026c-0.223-0.13-9.299-2.839-16.144-6.246c-0.761-0.379-0.771-0.351-0.877-0.392
	c-0.726-0.494-0.457-0.699,0.044-4.246c0.087-0.268,0.082-0.26,0.102-0.539c0.21-1.07,0.44-1.061,0.629-1.181
	c2.76-1.102,2.798-1.148,3.323-0.959c0.435,0.156,11.566,4.774,13.705,4.862c1.03,0.043,2.53,0.104,12.285-3.901
	c2.518-1.033,2.568-1.246,3.616-0.83C196.45,15.828,196.445,15.837,196.565,15.851L196.565,15.851z"/>
<path fill="#FFFFFF" d="M192.439,10.386c0.208,0.624,0.775,3.922,0.449,4.266c-0.621,0.655-11.154,4.78-13.396,4.67
	c-1.968-0.094-12.524-4.031-12.96-4.717c-0.155-0.243-0.263-0.414,0.295-3.596c0.162-0.92,0.361-0.899,2.86-1.813
	c1.354-0.495,1.395-0.001,6.774,1.778c3.785,1.252,3.93,0.883,8.933-0.838c3.082-1.06,3.129-1.375,4.524-0.864
	C192.09,10.066,192.144,10.037,192.439,10.386L192.439,10.386z"/>
<path fill="#FFFFFF" d="M179.443,1h0.537c0.061,0.025,6.164,2.063,6.616,2.416c0.432,0.337,0.73,3.494,0.707,3.786
	c-0.026,0.351-0.062,0.497-3.953,1.823c-2.972,1.014-3.062,1.375-6.051,0.413c-5.012-1.613-5.057-1.756-5.153-2.193
	c-0.087-0.399,0.379-3.057,0.437-3.307c0.242-1.048,2.115-1.104,6.028-2.695C179.094,1.125,179.097,1.163,179.443,1L179.443,1z"/>
<path fill="#FFFFFF" d="M236.565,15.851c0.047,0.016,0.095,0.029,0.141,0.045c0.257,0.23,0.604,0.283,0.643,0.297
	c0.433,0.432,0.356,0.547,0.496,1.124c0.072,0.488,0.082,0.918,0.283,1.564c0.283,2.447,0.515,2.547,0.003,3.129
	c-0.123,0.059-1.206,0.568-1.516,0.787c-0.114,0.033-4.45,2.182-8.581,3.715c-6.825,2.531-6.935,2.18-7.518,2.424
	c-0.678,0.01-0.674,0.013-0.732,0.013c-0.273,0-0.268-0.013-0.536-0.013c-0.303-0.121-0.3-0.106-0.625-0.168
	c-0.052-0.008-0.104-0.018-0.155-0.026c-0.223-0.13-9.299-2.839-16.144-6.246c-0.761-0.379-0.771-0.351-0.877-0.392
	c-0.726-0.494-0.457-0.699,0.044-4.246c0.087-0.268,0.082-0.26,0.102-0.539c0.21-1.07,0.44-1.061,0.629-1.181
	c2.76-1.102,2.798-1.148,3.323-0.959c0.435,0.156,11.566,4.774,13.705,4.862c1.03,0.043,2.53,0.104,12.285-3.901
	c2.518-1.033,2.568-1.246,3.616-0.83C236.45,15.828,236.445,15.837,236.565,15.851L236.565,15.851z"/>
<path fill="#FFFFFF" d="M232.439,10.386c0.208,0.624,0.775,3.922,0.449,4.266c-0.621,0.655-11.154,4.78-13.396,4.67
	c-1.968-0.094-12.524-4.031-12.96-4.717c-0.155-0.243-0.263-0.414,0.295-3.596c0.162-0.92,0.361-0.899,2.86-1.813
	c1.354-0.495,1.395-0.001,6.774,1.778c3.785,1.252,3.93,0.883,8.933-0.838c3.082-1.06,3.129-1.375,4.524-0.864
	C232.09,10.066,232.144,10.037,232.439,10.386L232.439,10.386z"/>
<path fill="#FFFFFF" d="M219.443,1h0.537c0.061,0.025,6.164,2.063,6.616,2.416c0.432,0.337,0.73,3.494,0.707,3.786
	c-0.026,0.351-0.062,0.497-3.953,1.823c-2.972,1.014-3.062,1.375-6.051,0.413c-5.012-1.613-5.057-1.756-5.153-2.193
	c-0.087-0.399,0.379-3.057,0.437-3.307c0.242-1.048,2.115-1.104,6.028-2.695C219.094,1.125,219.097,1.163,219.443,1L219.443,1z"/>
<path fill="#FFFFFF" d="M276.565,15.851c0.047,0.016,0.095,0.029,0.141,0.045c0.257,0.23,0.604,0.283,0.643,0.297
	c0.433,0.432,0.356,0.547,0.496,1.124c0.072,0.488,0.082,0.918,0.283,1.564c0.283,2.447,0.515,2.547,0.003,3.129
	c-0.123,0.059-1.206,0.568-1.516,0.787c-0.114,0.033-4.45,2.182-8.581,3.715c-6.825,2.531-6.935,2.18-7.518,2.424
	c-0.678,0.01-0.674,0.013-0.732,0.013c-0.273,0-0.268-0.013-0.536-0.013c-0.303-0.121-0.3-0.106-0.625-0.168
	c-0.052-0.008-0.104-0.018-0.155-0.026c-0.223-0.13-9.299-2.839-16.144-6.246c-0.761-0.379-0.771-0.351-0.877-0.392
	c-0.726-0.494-0.457-0.699,0.044-4.246c0.087-0.268,0.082-0.26,0.102-0.539c0.21-1.07,0.44-1.061,0.629-1.181
	c2.76-1.102,2.798-1.148,3.323-0.959c0.435,0.156,11.566,4.774,13.705,4.862c1.03,0.043,2.53,0.104,12.285-3.901
	c2.518-1.033,2.568-1.246,3.616-0.83C276.45,15.828,276.445,15.837,276.565,15.851L276.565,15.851z"/>
<path fill="#FFFFFF" d="M272.439,10.386c0.208,0.624,0.775,3.922,0.449,4.266c-0.621,0.655-11.154,4.78-13.396,4.67
	c-1.968-0.094-12.524-4.031-12.96-4.717c-0.155-0.243-0.263-0.414,0.295-3.596c0.162-0.92,0.361-0.899,2.86-1.813
	c1.354-0.495,1.395-0.001,6.774,1.778c3.785,1.252,3.93,0.883,8.933-0.838c3.082-1.06,3.129-1.375,4.524-0.864
	C272.09,10.066,272.144,10.037,272.439,10.386L272.439,10.386z"/>
<path fill="#FFFFFF" d="M259.443,2h0.537c0.061,0.025,6.164,2.063,6.616,2.416c0.432,0.337,0.73,3.494,0.707,3.786
	c-0.026,0.351-0.062,0.497-3.953,1.823c-2.972,1.014-3.062,1.375-6.051,0.413c-5.012-1.613-5.057-1.756-5.153-2.193
	c-0.087-0.399,0.379-3.057,0.437-3.307c0.242-1.048,2.115-1.104,6.028-2.695C259.094,2.125,259.097,2.163,259.443,2L259.443,2z"/>
<path fill="#FFFFFF" d="M316.565,15.851c0.048,0.016,0.095,0.029,0.142,0.045c0.257,0.23,0.604,0.283,0.643,0.297
	c0.434,0.432,0.355,0.547,0.495,1.124c0.072,0.488,0.082,0.918,0.282,1.564c0.283,2.447,0.516,2.547,0.004,3.129
	c-0.123,0.059-1.206,0.568-1.516,0.787c-0.115,0.033-4.451,2.182-8.582,3.715c-6.824,2.531-6.934,2.18-7.518,2.424
	c-0.679,0.01-0.674,0.013-0.732,0.013c-0.273,0-0.268-0.013-0.536-0.013c-0.303-0.121-0.3-0.106-0.625-0.168
	c-0.052-0.008-0.104-0.018-0.155-0.026c-0.223-0.13-9.299-2.839-16.144-6.246c-0.761-0.379-0.771-0.351-0.877-0.392
	c-0.726-0.494-0.457-0.699,0.044-4.246c0.087-0.268,0.082-0.26,0.102-0.539c0.21-1.07,0.44-1.061,0.629-1.181
	c2.76-1.102,2.798-1.148,3.323-0.959c0.435,0.156,11.566,4.774,13.705,4.862c1.03,0.043,2.53,0.104,12.285-3.901
	c2.518-1.033,2.567-1.246,3.615-0.83C316.449,15.828,316.445,15.837,316.565,15.851L316.565,15.851z"/>
<path fill="#FFFFFF" d="M312.439,10.386c0.208,0.624,0.774,3.922,0.448,4.266c-0.621,0.655-11.153,4.78-13.396,4.67
	c-1.968-0.094-12.524-4.031-12.96-4.717c-0.155-0.243-0.263-0.414,0.295-3.596c0.162-0.92,0.361-0.899,2.86-1.813
	c1.354-0.495,1.395-0.001,6.774,1.778c3.785,1.252,3.93,0.883,8.934-0.838c3.081-1.06,3.129-1.375,4.523-0.864
	C312.09,10.066,312.145,10.037,312.439,10.386L312.439,10.386z"/>
<path fill="#FFFFFF" d="M299.443,2h0.537c0.061,0.025,6.163,2.063,6.616,2.416c0.433,0.337,0.73,3.494,0.707,3.786
	c-0.024,0.351-0.062,0.497-3.953,1.823c-2.972,1.014-3.062,1.375-6.05,0.413c-5.012-1.613-5.057-1.756-5.153-2.193
	c-0.087-0.399,0.379-3.057,0.437-3.307c0.242-1.048,2.115-1.104,6.028-2.695C299.094,2.125,299.097,2.163,299.443,2L299.443,2z"/>
<path fill="#FFFFFF" d="M356.565,15.851c0.048,0.016,0.095,0.029,0.142,0.045c0.257,0.23,0.604,0.283,0.643,0.297
	c0.434,0.432,0.355,0.547,0.495,1.124c0.072,0.488,0.082,0.918,0.282,1.564c0.283,2.447,0.516,2.547,0.004,3.129
	c-0.123,0.059-1.206,0.568-1.516,0.787c-0.115,0.033-4.451,2.182-8.582,3.715c-6.824,2.531-6.935,2.18-7.519,2.424
	c-0.678,0.01-0.674,0.013-0.731,0.013c-0.272,0-0.269-0.013-0.535-0.013c-0.303-0.121-0.301-0.106-0.626-0.168
	c-0.052-0.008-0.104-0.018-0.155-0.026c-0.223-0.13-9.299-2.839-16.145-6.246c-0.762-0.379-0.771-0.351-0.877-0.392
	c-0.727-0.494-0.457-0.699,0.044-4.246c0.087-0.268,0.082-0.26,0.102-0.539c0.21-1.07,0.44-1.061,0.63-1.181
	c2.761-1.102,2.798-1.148,3.322-0.959c0.436,0.156,11.566,4.774,13.705,4.862c1.03,0.043,2.53,0.104,12.285-3.901
	c2.518-1.033,2.567-1.246,3.615-0.83C356.449,15.828,356.445,15.837,356.565,15.851L356.565,15.851z"/>
<path fill="#FFFFFF" d="M352.439,10.386c0.208,0.624,0.774,3.922,0.448,4.266c-0.621,0.655-11.153,4.78-13.396,4.67
	c-1.969-0.094-12.523-4.031-12.96-4.717c-0.155-0.243-0.264-0.414,0.295-3.596c0.162-0.92,0.36-0.899,2.86-1.813
	c1.354-0.495,1.395-0.001,6.773,1.778c3.785,1.252,3.93,0.883,8.933-0.838c3.082-1.06,3.13-1.375,4.524-0.864
	C352.09,10.066,352.145,10.037,352.439,10.386L352.439,10.386z"/>
<path fill="#FFFFFF" d="M339.443,1h0.535c0.062,0.025,6.163,2.063,6.616,2.416c0.433,0.337,0.73,3.494,0.707,3.786
	c-0.024,0.351-0.062,0.497-3.953,1.823c-2.972,1.014-3.062,1.375-6.051,0.413c-5.012-1.613-5.057-1.756-5.151-2.193
	c-0.089-0.399,0.379-3.057,0.436-3.307c0.242-1.048,2.115-1.104,6.028-2.695C339.094,1.125,339.098,1.163,339.443,1L339.443,1z"/>
<path fill="#FFFFFF" d="M396.565,15.851c0.048,0.016,0.095,0.029,0.142,0.045c0.257,0.23,0.604,0.283,0.643,0.297
	c0.434,0.432,0.355,0.547,0.495,1.124c0.072,0.488,0.082,0.918,0.282,1.564c0.283,2.447,0.516,2.547,0.004,3.129
	c-0.123,0.059-1.206,0.568-1.516,0.787c-0.115,0.033-4.451,2.182-8.582,3.715c-6.824,2.531-6.935,2.18-7.519,2.424
	c-0.678,0.01-0.674,0.013-0.731,0.013c-0.272,0-0.269-0.013-0.535-0.013c-0.303-0.121-0.301-0.106-0.626-0.168
	c-0.052-0.008-0.104-0.018-0.155-0.026c-0.223-0.13-9.299-2.839-16.145-6.246c-0.762-0.379-0.771-0.351-0.877-0.392
	c-0.727-0.494-0.457-0.699,0.044-4.246c0.087-0.268,0.082-0.26,0.102-0.539c0.21-1.07,0.44-1.061,0.63-1.181
	c2.761-1.102,2.798-1.148,3.322-0.959c0.436,0.156,11.566,4.774,13.705,4.862c1.03,0.043,2.53,0.104,12.285-3.901
	c2.518-1.033,2.567-1.246,3.615-0.83C396.449,15.828,396.445,15.837,396.565,15.851L396.565,15.851z"/>
<path fill="#FFFFFF" d="M392.439,10.386c0.208,0.624,0.774,3.922,0.448,4.266c-0.621,0.655-11.153,4.78-13.396,4.67
	c-1.969-0.094-12.523-4.031-12.96-4.717c-0.155-0.243-0.264-0.414,0.295-3.596c0.162-0.92,0.36-0.899,2.86-1.813
	c1.354-0.495,1.395-0.001,6.773,1.778c3.785,1.252,3.93,0.883,8.933-0.838c3.082-1.06,3.13-1.375,4.524-0.864
	C392.09,10.066,392.145,10.037,392.439,10.386L392.439,10.386z"/>
<path fill="#FFFFFF" d="M379.443,1h0.535c0.062,0.025,6.163,2.063,6.616,2.416c0.433,0.337,0.73,3.494,0.707,3.786
	c-0.024,0.351-0.062,0.497-3.953,1.823c-2.972,1.014-3.062,1.375-6.051,0.413c-5.012-1.613-5.057-1.756-5.151-2.193
	c-0.089-0.399,0.379-3.057,0.436-3.307c0.242-1.048,2.115-1.104,6.028-2.695C379.094,1.125,379.098,1.163,379.443,1L379.443,1z"/>
<path fill="#FFFFFF" d="M436.565,15.851c0.048,0.016,0.095,0.029,0.142,0.045c0.257,0.23,0.604,0.283,0.643,0.297
	c0.434,0.432,0.355,0.547,0.495,1.124c0.072,0.488,0.082,0.918,0.282,1.564c0.283,2.447,0.516,2.547,0.004,3.129
	c-0.123,0.059-1.206,0.568-1.516,0.787c-0.115,0.033-4.451,2.182-8.582,3.715c-6.824,2.531-6.935,2.18-7.519,2.424
	c-0.678,0.01-0.674,0.013-0.731,0.013c-0.272,0-0.269-0.013-0.535-0.013c-0.303-0.121-0.301-0.106-0.626-0.168
	c-0.052-0.008-0.104-0.018-0.155-0.026c-0.223-0.13-9.299-2.839-16.145-6.246c-0.762-0.379-0.771-0.351-0.877-0.392
	c-0.727-0.494-0.457-0.699,0.044-4.246c0.087-0.268,0.082-0.26,0.102-0.539c0.21-1.07,0.44-1.061,0.63-1.181
	c2.761-1.102,2.798-1.148,3.322-0.959c0.436,0.156,11.566,4.774,13.705,4.862c1.03,0.043,2.53,0.104,12.285-3.901
	c2.518-1.033,2.567-1.246,3.615-0.83C436.449,15.828,436.445,15.837,436.565,15.851L436.565,15.851z"/>
<path fill="#FFFFFF" d="M432.439,10.386c0.208,0.624,0.774,3.922,0.448,4.266c-0.621,0.655-11.153,4.78-13.396,4.67
	c-1.969-0.094-12.523-4.031-12.96-4.717c-0.155-0.243-0.264-0.414,0.295-3.596c0.162-0.92,0.36-0.899,2.86-1.813
	c1.354-0.495,1.395-0.001,6.773,1.778c3.785,1.252,3.93,0.883,8.933-0.838c3.082-1.06,3.13-1.375,4.524-0.864
	C432.09,10.066,432.145,10.037,432.439,10.386L432.439,10.386z"/>
<path fill="#FFFFFF" d="M419.443,0h0.535c0.062,0.025,6.163,2.063,6.616,2.416c0.433,0.337,0.73,3.494,0.707,3.786
	c-0.024,0.351-0.062,0.497-3.953,1.823c-2.972,1.014-3.062,1.375-6.051,0.413c-5.012-1.613-5.057-1.756-5.151-2.193
	c-0.089-0.399,0.379-3.057,0.436-3.307c0.242-1.048,2.115-1.104,6.028-2.695C419.094,0.125,419.098,0.163,419.443,0L419.443,0z"/>
<path fill="#FFFFFF" d="M476.565,15.851c0.048,0.016,0.095,0.029,0.142,0.045c0.257,0.23,0.604,0.283,0.643,0.297
	c0.434,0.432,0.355,0.547,0.495,1.124c0.072,0.488,0.082,0.918,0.282,1.564c0.283,2.447,0.516,2.547,0.004,3.129
	c-0.123,0.059-1.206,0.568-1.516,0.787c-0.115,0.033-4.451,2.182-8.582,3.715c-6.824,2.531-6.935,2.18-7.519,2.424
	c-0.678,0.01-0.674,0.013-0.731,0.013c-0.272,0-0.269-0.013-0.535-0.013c-0.303-0.121-0.301-0.106-0.626-0.168
	c-0.052-0.008-0.104-0.018-0.155-0.026c-0.223-0.13-9.299-2.839-16.145-6.246c-0.762-0.379-0.771-0.351-0.877-0.392
	c-0.727-0.494-0.457-0.699,0.044-4.246c0.087-0.268,0.082-0.26,0.102-0.539c0.21-1.07,0.44-1.061,0.63-1.181
	c2.761-1.102,2.798-1.148,3.322-0.959c0.436,0.156,11.566,4.774,13.705,4.862c1.03,0.043,2.53,0.104,12.285-3.901
	c2.518-1.033,2.567-1.246,3.615-0.83C476.449,15.828,476.445,15.837,476.565,15.851L476.565,15.851z"/>
<path fill="#FFFFFF" d="M472.439,10.386c0.208,0.624,0.774,3.922,0.448,4.266c-0.621,0.655-11.153,4.78-13.396,4.67
	c-1.969-0.094-12.523-4.031-12.96-4.717c-0.155-0.243-0.264-0.414,0.295-3.596c0.162-0.92,0.36-0.899,2.86-1.813
	c1.354-0.495,1.395-0.001,6.773,1.778c3.785,1.252,3.93,0.883,8.933-0.838c3.082-1.06,3.13-1.375,4.524-0.864
	C472.09,10.066,472.145,10.037,472.439,10.386L472.439,10.386z"/>
<path fill="#FFFFFF" d="M459.443,0h0.535c0.062,0.025,6.163,2.063,6.616,2.416c0.433,0.337,0.73,3.494,0.707,3.786
	c-0.024,0.351-0.062,0.497-3.953,1.823c-2.972,1.014-3.062,1.375-6.051,0.413c-5.012-1.613-5.057-1.756-5.151-2.193
	c-0.089-0.399,0.379-3.057,0.436-3.307c0.242-1.048,2.115-1.104,6.028-2.695C459.094,0.125,459.098,0.163,459.443,0L459.443,0z"/>
<path fill="#FFFFFF" d="M516.565,15.851c0.048,0.016,0.095,0.029,0.142,0.045c0.257,0.23,0.604,0.283,0.643,0.297
	c0.434,0.432,0.355,0.547,0.495,1.124c0.072,0.488,0.082,0.918,0.282,1.564c0.283,2.447,0.516,2.547,0.004,3.129
	c-0.123,0.059-1.206,0.568-1.516,0.787c-0.115,0.033-4.451,2.182-8.582,3.715c-6.824,2.531-6.935,2.18-7.519,2.424
	c-0.678,0.01-0.674,0.013-0.731,0.013c-0.272,0-0.269-0.013-0.535-0.013c-0.303-0.121-0.301-0.106-0.626-0.168
	c-0.052-0.008-0.104-0.018-0.155-0.026c-0.223-0.13-9.299-2.839-16.145-6.246c-0.761-0.379-0.771-0.351-0.877-0.392
	c-0.727-0.494-0.457-0.699,0.044-4.246c0.087-0.268,0.082-0.26,0.102-0.539c0.21-1.07,0.44-1.061,0.63-1.181
	c2.761-1.102,2.799-1.148,3.322-0.959c0.437,0.156,11.566,4.774,13.705,4.862c1.03,0.043,2.53,0.104,12.285-3.901
	c2.518-1.033,2.567-1.246,3.615-0.83C516.449,15.828,516.445,15.837,516.565,15.851L516.565,15.851z"/>
<path fill="#FFFFFF" d="M512.439,9.386c0.208,0.624,0.774,3.922,0.448,4.266c-0.621,0.655-11.153,4.78-13.396,4.67
	c-1.969-0.094-12.523-4.031-12.96-4.717c-0.155-0.243-0.264-0.414,0.295-3.596c0.162-0.92,0.36-0.899,2.86-1.813
	c1.354-0.495,1.395-0.001,6.773,1.778c3.785,1.252,3.93,0.883,8.933-0.838c3.082-1.06,3.13-1.375,4.524-0.864
	C512.09,9.066,512.145,9.037,512.439,9.386L512.439,9.386z"/>
<path fill="#FFFFFF" d="M499.443,0h0.535c0.062,0.025,6.163,2.063,6.616,2.416c0.433,0.337,0.73,3.494,0.707,3.786
	c-0.024,0.351-0.062,0.497-3.953,1.823c-2.972,1.014-3.062,1.375-6.051,0.413c-5.012-1.613-5.057-1.756-5.151-2.193
	c-0.089-0.399,0.379-3.057,0.436-3.307c0.242-1.048,2.115-1.104,6.028-2.695C499.094,0.125,499.098,0.163,499.443,0L499.443,0z"/>
<path fill="#FFFFFF" d="M556.565,15.851c0.048,0.016,0.095,0.029,0.142,0.045c0.257,0.23,0.604,0.283,0.643,0.297
	c0.434,0.432,0.355,0.547,0.495,1.124c0.072,0.488,0.082,0.918,0.282,1.564c0.283,2.447,0.516,2.547,0.004,3.129
	c-0.123,0.059-1.206,0.568-1.516,0.787c-0.115,0.033-4.451,2.182-8.582,3.715c-6.824,2.531-6.935,2.18-7.519,2.424
	c-0.678,0.01-0.674,0.013-0.731,0.013c-0.272,0-0.269-0.013-0.535-0.013c-0.303-0.121-0.301-0.106-0.626-0.168
	c-0.052-0.008-0.104-0.018-0.155-0.026c-0.223-0.13-9.299-2.839-16.145-6.246c-0.761-0.379-0.771-0.351-0.877-0.392
	c-0.727-0.494-0.457-0.699,0.044-4.246c0.087-0.268,0.082-0.26,0.102-0.539c0.21-1.07,0.44-1.061,0.63-1.181
	c2.761-1.102,2.799-1.148,3.322-0.959c0.437,0.156,11.566,4.774,13.705,4.862c1.03,0.043,2.53,0.104,12.285-3.901
	c2.518-1.033,2.568-1.246,3.615-0.83C556.449,15.828,556.445,15.837,556.565,15.851L556.565,15.851z"/>
<path fill="#FFFFFF" d="M552.439,9.386c0.208,0.624,0.774,3.922,0.448,4.266c-0.621,0.655-11.153,4.78-13.396,4.67
	c-1.969-0.094-12.523-4.031-12.96-4.717c-0.155-0.243-0.264-0.414,0.295-3.596c0.162-0.92,0.359-0.899,2.859-1.813
	c1.354-0.495,1.396-0.001,6.774,1.778c3.785,1.252,3.93,0.883,8.933-0.838c3.082-1.06,3.13-1.375,4.524-0.864
	C552.09,9.066,552.145,9.037,552.439,9.386L552.439,9.386z"/>
<path fill="#FFFFFF" d="M539.443,0h0.535c0.062,0.025,6.163,2.063,6.616,2.416c0.433,0.337,0.73,3.494,0.707,3.786
	c-0.024,0.351-0.062,0.497-3.953,1.823c-2.972,1.014-3.062,1.375-6.051,0.413c-5.012-1.613-5.057-1.756-5.151-2.193
	c-0.089-0.399,0.379-3.057,0.436-3.307c0.242-1.048,2.115-1.104,6.028-2.695C539.094,0.125,539.098,0.163,539.443,0L539.443,0z"/>
<path fill="#FFFFFF" d="M596.565,15.851c0.048,0.016,0.095,0.029,0.142,0.045c0.257,0.23,0.604,0.283,0.643,0.297
	c0.434,0.432,0.355,0.547,0.495,1.124c0.072,0.488,0.082,0.918,0.282,1.564c0.283,2.447,0.516,2.547,0.004,3.129
	c-0.123,0.059-1.206,0.568-1.516,0.787c-0.115,0.033-4.451,2.182-8.582,3.715c-6.824,2.531-6.935,2.18-7.519,2.424
	c-0.678,0.01-0.674,0.013-0.731,0.013c-0.272,0-0.269-0.013-0.535-0.013c-0.303-0.121-0.301-0.106-0.626-0.168
	c-0.052-0.008-0.104-0.018-0.155-0.026c-0.223-0.13-9.299-2.839-16.145-6.246c-0.761-0.379-0.771-0.351-0.877-0.392
	c-0.727-0.494-0.457-0.699,0.044-4.246c0.087-0.268,0.082-0.26,0.102-0.539c0.21-1.07,0.44-1.061,0.63-1.181
	c2.761-1.102,2.799-1.148,3.322-0.959c0.437,0.156,11.566,4.774,13.705,4.862c1.03,0.043,2.53,0.104,12.285-3.901
	c2.518-1.033,2.568-1.246,3.615-0.83C596.449,15.828,596.445,15.837,596.565,15.851L596.565,15.851z"/>
<path fill="#FFFFFF" d="M592.439,9.386c0.208,0.624,0.774,3.922,0.448,4.266c-0.621,0.655-11.153,4.78-13.396,4.67
	c-1.969-0.094-12.523-4.031-12.96-4.717c-0.155-0.243-0.264-0.414,0.295-3.596c0.162-0.92,0.359-0.899,2.859-1.813
	c1.354-0.495,1.396-0.001,6.774,1.778c3.785,1.252,3.93,0.883,8.933-0.838c3.082-1.06,3.13-1.375,4.524-0.864
	C592.09,9.066,592.145,9.037,592.439,9.386L592.439,9.386z"/>
<path fill="#FFFFFF" d="M579.443,0h0.535c0.062,0.025,6.163,2.063,6.616,2.416c0.433,0.337,0.73,3.494,0.707,3.786
	c-0.024,0.351-0.062,0.497-3.953,1.823c-2.972,1.014-3.062,1.375-6.051,0.413c-5.012-1.613-5.057-1.756-5.151-2.193
	c-0.089-0.399,0.379-3.057,0.436-3.307c0.242-1.048,2.115-1.104,6.028-2.695C579.094,0.125,579.098,0.163,579.443,0L579.443,0z"/>
</svg>
